<svg width="142" height="24" viewBox="0 0 142 24" fill="none" xmlns="http://www.w3.org/2000/svg">
<g clip-path="url(#clip0_954_8202)">
<path d="M11.2463 0H8.01855V19.3376H11.2463V0Z" fill="#221E26"/>
<path fill-rule="evenodd" clip-rule="evenodd" d="M12.0264 24.0007L15.2541 22.0079V5.26753C14.2976 4.55627 13.195 4.06724 12.0264 3.83594V24.0007Z" fill="#221E26"/>
<path fill-rule="evenodd" clip-rule="evenodd" d="M4.01074 22.008L7.23845 24.0008V3.83594C6.06978 4.06716 4.96719 4.55622 4.01074 5.26758V22.008Z" fill="#221E26"/>
<path fill-rule="evenodd" clip-rule="evenodd" d="M16.0342 0.919922V21.6482L17.5404 20.7166C18.0786 20.3626 18.5186 19.878 18.8196 19.308C19.1205 18.7379 19.2727 18.1008 19.2619 17.456V7.67409C19.2619 4.84943 16.0342 0.919922 16.0342 0.919922Z" fill="#221E26"/>
<path fill-rule="evenodd" clip-rule="evenodd" d="M0.000542086 17.456C-0.0103067 18.1008 0.14184 18.7379 0.442828 19.308C0.743815 19.8781 1.18386 20.3626 1.72203 20.7166L3.22828 21.6482V0.919922C3.22828 0.919922 0.000542086 4.84943 0.000542086 7.67409V17.456Z" fill="#221E26"/>
<path fill-rule="evenodd" clip-rule="evenodd" d="M96.6299 19.5653V4.3157L98.9653 3.33594V19.5653H96.6299Z" fill="#221E26"/>
<path fill-rule="evenodd" clip-rule="evenodd" d="M95.3966 13.6654C95.3966 12.0433 94.8844 10.7287 93.8601 9.72156C92.8357 8.71443 91.5007 8.21089 89.855 8.21094C88.2092 8.21094 86.8673 8.73474 85.8293 9.78236C84.7912 10.83 84.2723 12.2257 84.2725 13.9695C84.2725 15.7133 84.7846 17.1124 85.8089 18.1668C86.8333 19.2212 88.1649 19.7484 89.8038 19.7484C90.9936 19.789 92.1647 19.4441 93.1432 18.765C94.0183 18.145 94.6717 17.2602 95.0075 16.2405H92.4875C91.9685 17.2814 91.0739 17.8018 89.8037 17.8018C88.9967 17.8273 88.2124 17.5321 87.6218 16.9806C87.0245 16.3953 86.6821 15.5973 86.6692 14.7603H95.3146C95.3711 14.3981 95.3985 14.0319 95.3966 13.6654ZM86.6898 13.1787C86.7321 12.3461 87.087 11.5602 87.6834 10.9787C88.2673 10.4298 89.0443 10.1345 89.8447 10.1575C90.6537 10.1381 91.439 10.4323 92.0368 10.9787C92.3379 11.2585 92.5759 11.5996 92.7349 11.979C92.8939 12.3584 92.9702 12.7674 92.9587 13.1787H86.6898Z" fill="#221E26"/>
<path fill-rule="evenodd" clip-rule="evenodd" d="M75.1499 8.3936V10.1577C75.901 8.85995 77.1029 8.2111 78.7555 8.21112C79.3378 8.1926 79.9177 8.2947 80.4588 8.51102C80.9999 8.72734 81.4906 9.05322 81.9002 9.46826C82.7265 10.3064 83.1396 11.4757 83.1396 12.9761V19.5661H80.8246V13.321C80.8246 12.3207 80.572 11.5535 80.0666 11.0196C79.7975 10.7477 79.4741 10.5357 79.1175 10.3977C78.7609 10.2597 78.3793 10.1986 77.9976 10.2185C77.6144 10.1993 77.2314 10.2606 76.8732 10.3986C76.5151 10.5365 76.1898 10.7481 75.9182 11.0196C75.406 11.5536 75.1499 12.3207 75.1499 13.321V19.5661H72.8145V8.3936H75.1499Z" fill="#221E26"/>
<path d="M70.8023 8.39258H68.4668V19.5651H70.8023V8.39258Z" fill="#221E26"/>
<path fill-rule="evenodd" clip-rule="evenodd" d="M66.774 10.2789H64.0288V16.4633C64.0131 16.6261 64.0314 16.7904 64.0825 16.9457C64.1337 17.1011 64.2165 17.2441 64.3258 17.3656C64.5239 17.5481 64.8619 17.6393 65.3399 17.6393H66.774V19.5656H64.9302C62.7586 19.5656 61.6728 18.5315 61.6729 16.4633V6.59504L64.0288 5.61523V8.39313H66.774V10.2789Z" fill="#221E26"/>
<path fill-rule="evenodd" clip-rule="evenodd" d="M52.6089 8.3936V10.1577C53.3601 8.85995 54.5619 8.2111 56.2145 8.21112C56.7969 8.19261 57.3767 8.29471 57.9178 8.51102C58.4589 8.72734 58.9496 9.05322 59.3592 9.46826C60.1855 10.3064 60.5987 11.4757 60.5987 12.9761V19.5661H58.2836V13.321C58.2836 12.3207 58.031 11.5535 57.5256 11.0196C57.2565 10.7476 56.933 10.5357 56.5765 10.3977C56.2199 10.2597 55.8383 10.1986 55.4566 10.2185C55.0733 10.1993 54.6903 10.2606 54.3322 10.3986C53.9741 10.5365 53.6487 10.748 53.3772 11.0196C52.865 11.5536 52.6089 12.3207 52.6089 13.321V19.5661H50.2734V8.3936H52.6089Z" fill="#221E26"/>
<path fill-rule="evenodd" clip-rule="evenodd" d="M49.0403 13.6654C49.0403 12.0433 48.5282 10.7287 47.5038 9.72156C46.4795 8.71443 45.1445 8.21089 43.4987 8.21094C41.8529 8.21094 40.511 8.73474 39.473 9.78236C38.435 10.83 37.916 12.2257 37.916 13.9695C37.916 15.7133 38.4282 17.1124 39.4525 18.1668C40.4768 19.2212 41.8084 19.7484 43.4474 19.7484C44.6372 19.7891 45.8083 19.4442 46.7868 18.765C47.6619 18.145 48.3153 17.2602 48.651 16.2405H46.1312C45.6122 17.2814 44.7176 17.8018 43.4474 17.8018C42.6405 17.8273 41.8561 17.5321 41.2656 16.9806C40.6682 16.3953 40.3258 15.5973 40.313 14.7603H48.9584C49.0149 14.3981 49.0423 14.0319 49.0403 13.6654ZM40.3335 13.1787C40.3758 12.3461 40.7307 11.5602 41.3271 10.9787C41.911 10.4298 42.688 10.1345 43.4885 10.1575C44.2975 10.1381 45.0827 10.4323 45.6805 10.9787C45.9817 11.2585 46.2197 11.5996 46.3787 11.979C46.5377 12.3584 46.6139 12.7674 46.6024 13.1787H40.3335Z" fill="#221E26"/>
<path fill-rule="evenodd" clip-rule="evenodd" d="M31.8053 7.21773C31.1946 7.19035 30.5934 7.37675 30.1049 7.74494C29.8836 7.93087 29.709 8.16627 29.5951 8.43217C29.4812 8.69808 29.4313 8.98706 29.4493 9.27583C29.4351 9.57678 29.4994 9.87626 29.6359 10.1447C29.7724 10.4132 29.9764 10.6414 30.2278 10.8067C30.8016 11.1809 31.4412 11.4424 32.1126 11.5772C32.8501 11.7394 33.5876 11.9253 34.3251 12.1349C35.0508 12.3371 35.7044 12.7414 36.2099 13.3008C36.7289 13.8685 36.9884 14.6728 36.9884 15.7137C36.9884 16.7546 36.5445 17.6873 35.6568 18.5119C34.769 19.3365 33.5808 19.7488 32.0921 19.7488C30.6034 19.7488 29.3947 19.4041 28.466 18.7146C28.0161 18.3905 27.6534 17.9597 27.4103 17.4607C27.1672 16.9618 27.0513 16.4104 27.0729 15.8556H29.5722C29.6003 16.4218 29.8507 16.9538 30.2688 17.3358C30.6786 17.7008 31.2795 17.8833 32.0716 17.8833C32.7503 17.9215 33.4187 17.7046 33.9461 17.275C34.332 16.9397 34.5747 16.4689 34.6242 15.9596C34.6738 15.4503 34.5264 14.9414 34.2125 14.5377C33.9158 14.2159 33.5421 13.9751 33.1267 13.8382C32.6465 13.6724 32.1575 13.5336 31.6619 13.4225C31.1292 13.3008 30.5931 13.1589 30.0537 12.9967C29.5393 12.8452 29.0443 12.6343 28.5786 12.3681C28.1219 12.0981 27.7467 11.7092 27.4929 11.2428C27.1973 10.6848 27.0525 10.0592 27.0729 9.42793C27.0539 8.86282 27.1651 8.30094 27.3978 7.78581C27.6305 7.27068 27.9785 6.81613 28.4148 6.45738C29.3094 5.70713 30.4703 5.33201 31.8975 5.33203C33.3247 5.33205 34.4651 5.65647 35.3188 6.30531C36.1724 6.95416 36.647 7.89365 36.7426 9.12378H34.1613C34.114 8.5975 33.8642 8.11027 33.4647 7.76524C32.9996 7.38093 32.4074 7.18554 31.8053 7.21773Z" fill="#221E26"/>
<path fill-rule="evenodd" clip-rule="evenodd" d="M135.942 18.1488C135.115 18.7243 134.124 19.0168 133.118 18.983C132.363 18.9913 131.617 18.8226 130.939 18.4905C130.263 18.1493 129.702 17.6185 129.322 16.9629C128.882 16.1817 128.66 15.2967 128.678 14.4H138.233C138.299 14.0487 138.333 13.6921 138.335 13.3347C138.338 12.5151 138.131 11.7086 137.732 10.993C137.315 10.2483 136.698 9.63547 135.952 9.2241C135.096 8.75743 134.133 8.52515 133.159 8.55073C132.185 8.53185 131.224 8.76372 130.366 9.2241C129.555 9.67239 128.89 10.346 128.453 11.1639C127.971 12.08 127.732 13.104 127.757 14.1388C127.73 15.1802 127.97 16.2111 128.453 17.1338C128.89 17.9516 129.555 18.6253 130.366 19.0735C131.224 19.5339 132.185 19.7658 133.159 19.7469C134.564 19.7469 135.72 19.3918 136.627 18.6816C137.522 17.9919 138.119 16.9848 138.295 15.8675H137.333C137.266 16.3219 137.108 16.7581 136.869 17.1501C136.63 17.5421 136.315 17.8818 135.942 18.1488ZM129.322 11.3246C129.707 10.67 130.272 10.1398 130.949 9.79696C131.632 9.4679 132.379 9.2962 133.137 9.29447C133.895 9.29274 134.643 9.46102 135.328 9.78695C136.003 10.1214 136.559 10.6544 136.924 11.3146C137.338 12.094 137.516 12.9779 137.435 13.8573H128.678C128.66 12.9703 128.883 12.0951 129.322 11.3246Z" fill="#221E26"/>
<path fill-rule="evenodd" clip-rule="evenodd" d="M121.737 8.42856C123.047 8.42856 124.111 8.83056 124.929 9.63458C125.748 10.4386 126.157 11.6245 126.157 13.1924V19.5643H125.236V13.2326C125.236 11.9194 124.902 10.9177 124.234 10.2276C123.565 9.53745 122.651 9.19239 121.492 9.19239C120.955 9.16941 120.42 9.26052 119.921 9.45973C119.422 9.65894 118.97 9.96172 118.597 10.3482C117.867 11.1187 117.502 12.2544 117.502 13.7552V19.5643H116.581V8.64967H117.502V11.5241C117.72 10.5859 118.278 9.76221 119.067 9.21249C119.856 8.68426 120.788 8.41069 121.737 8.42856Z" fill="#221E26"/>
<path fill-rule="evenodd" clip-rule="evenodd" d="M113.926 8.77235C113.359 7.70087 112.501 6.81226 111.451 6.2095C110.356 5.60943 109.128 5.29492 107.88 5.29492C106.632 5.29492 105.404 5.60943 104.309 6.2095C103.257 6.81374 102.396 7.70172 101.823 8.77235C101.211 9.92164 100.901 11.2085 100.923 12.5112C100.901 13.8138 101.211 15.1006 101.823 16.2499C102.398 17.322 103.258 18.2129 104.309 18.8228C105.402 19.4292 106.631 19.7474 107.88 19.7474C109.129 19.7474 110.358 19.4292 111.451 18.8228C112.5 18.2143 113.358 17.3229 113.926 16.2499C114.532 15.0986 114.839 13.8126 114.816 12.5112C114.839 11.2097 114.532 9.92369 113.926 8.77235ZM113.087 15.888C112.593 16.8212 111.844 17.5948 110.929 18.1192C109.993 18.6335 108.942 18.9031 107.875 18.9031C106.807 18.9031 105.757 18.6335 104.821 18.1192C103.91 17.5924 103.165 16.8192 102.672 15.888C102.129 14.8472 101.858 13.6854 101.885 12.5112C101.858 11.3369 102.129 10.1751 102.672 9.13434C103.165 8.20317 103.91 7.4299 104.821 6.90314C105.757 6.38884 106.807 6.11923 107.875 6.11923C108.942 6.11923 109.993 6.38884 110.929 6.90314C111.844 7.42746 112.593 8.20111 113.087 9.13434C113.631 10.1751 113.902 11.3369 113.875 12.5112C113.902 13.6854 113.631 14.8472 113.087 15.888Z" fill="#221E26"/>
<path d="M140.806 9.90115L140.552 9.52203H140.348V9.90115H140.088V8.7168H140.628C140.907 8.7168 141.074 8.86396 141.074 9.10755V9.11088C141.078 9.19145 141.055 9.27103 141.01 9.33739C140.964 9.40375 140.898 9.45322 140.821 9.47818L141.11 9.90122L140.806 9.90115ZM140.811 9.12107C140.811 9.00945 140.733 8.95187 140.606 8.95187H140.348V9.29194H140.611C140.738 9.29194 140.811 9.22435 140.811 9.1244L140.811 9.12107Z" fill="#221E26"/>
<path d="M140.537 10.5547C140.298 10.5547 140.063 10.4836 139.864 10.3504C139.665 10.2171 139.51 10.0277 139.418 9.80604C139.327 9.58441 139.303 9.34053 139.349 9.10525C139.396 8.86996 139.511 8.65383 139.681 8.4842C139.85 8.31456 140.066 8.19903 140.301 8.15222C140.536 8.10541 140.779 8.12942 141 8.22122C141.222 8.31302 141.411 8.46847 141.544 8.66793C141.677 8.86739 141.748 9.1019 141.748 9.34179C141.747 9.66335 141.62 9.97162 141.393 10.199C141.166 10.4264 140.858 10.5543 140.537 10.5547ZM140.537 8.39292C140.35 8.39291 140.167 8.44856 140.011 8.55282C139.855 8.65709 139.734 8.80529 139.662 8.97868C139.59 9.15208 139.571 9.34288 139.608 9.52696C139.644 9.71103 139.735 9.88012 139.867 10.0128C140 10.1455 140.168 10.2359 140.352 10.2725C140.536 10.3091 140.726 10.2903 140.9 10.2185C141.073 10.1467 141.221 10.0251 141.325 9.869C141.429 9.71295 141.484 9.52948 141.484 9.34179C141.484 9.09023 141.384 8.84906 141.207 8.67118C141.029 8.49329 140.788 8.39323 140.537 8.39292Z" fill="#221E26"/>
</g>
<defs>
<clipPath id="clip0_954_8202">
<rect width="141.75" height="24" fill="white"/>
</clipPath>
</defs>
</svg>
